<?xml version="1.0" standalone="no"?>
<!DOCTYPE svg PUBLIC "-//W3C//DTD SVG 20010904//EN"
 "http://www.w3.org/TR/2001/REC-SVG-20010904/DTD/svg10.dtd">
<svg version="1.0" xmlns="http://www.w3.org/2000/svg"
 width="1024.000000pt" height="1024.000000pt" viewBox="0 0 1024.000000 1024.000000"
 preserveAspectRatio="xMidYMid meet">

<g transform="translate(0.000000,1024.000000) scale(0.100000,-0.100000)"
fill="#FFFFFF" stroke="none">
<path d="M5205 5871 c-6 -5 -26 -11 -45 -13 -33 -3 -36 -6 -46 -49 -7 -26 -19
-58 -29 -72 -9 -15 -14 -34 -10 -45 3 -11 -4 -44 -15 -73 -23 -60 -48 -170
-61 -269 -5 -36 -11 -83 -14 -105 -7 -54 -9 -421 -2 -465 12 -76 35 -149 66
-209 4 -8 14 -18 22 -22 55 -30 87 -39 110 -34 22 5 29 2 34 -14 9 -31 26 -26
63 19 33 39 35 60 6 60 -8 0 -14 6 -14 13 0 19 21 37 42 37 19 0 24 -15 8 -25
-22 -14 -8 -26 28 -23 32 3 37 6 35 26 -3 26 5 28 34 7 20 -14 25 -13 57 7 41
27 42 29 17 59 -18 23 -20 23 -38 6 -24 -21 -33 -22 -33 -2 0 8 4 15 9 15 5 0
22 11 38 23 15 13 38 26 51 30 21 5 22 3 16 -28 -4 -21 -1 -35 6 -40 15 -9 30
12 30 43 0 14 6 22 18 22 10 0 28 9 40 20 17 17 20 25 12 40 -15 28 -30 34
-30 11 0 -13 -12 -26 -35 -37 -35 -16 -36 -16 -61 7 -21 20 -27 21 -34 9 -5
-8 -10 -18 -10 -21 0 -3 -12 -11 -26 -18 -22 -9 -31 -9 -50 4 -23 15 -54 11
-54 -6 0 -5 -9 -9 -20 -9 -24 0 -26 13 -5 30 25 21 18 40 -16 40 -28 0 -31 3
-26 25 5 30 -16 205 -27 224 -5 7 -7 45 -6 84 3 80 3 84 -1 177 -1 36 1 76 4
90 44 189 49 376 11 426 -23 32 -36 38 -49 25z m-115 -585 c0 -11 -19 -15 -25
-6 -3 5 1 10 9 10 9 0 16 -2 16 -4z m100 -106 c0 -5 -4 -10 -10 -10 -5 0 -10
5 -10 10 0 6 5 10 10 10 6 0 10 -4 10 -10z m30 -520 c0 -5 -6 -10 -14 -10 -8
0 -18 5 -21 10 -3 6 3 10 14 10 12 0 21 -4 21 -10z"/>
<path d="M8391 5865 c-18 -8 -41 -15 -50 -15 -9 0 -41 -18 -71 -40 -30 -21
-72 -51 -92 -65 -21 -14 -38 -31 -38 -39 0 -7 -18 -21 -41 -31 -22 -10 -51
-32 -64 -49 -57 -73 -72 -90 -117 -136 -27 -26 -48 -53 -48 -59 0 -17 -46 -34
-73 -27 -21 5 -27 15 -36 56 -14 64 -14 197 -1 205 6 4 8 35 6 73 -5 82 -3 77
-19 63 -8 -6 -17 -8 -20 -4 -10 9 -37 -17 -37 -36 -1 -9 -9 -30 -18 -47 -69
-127 -82 -157 -82 -192 0 -21 -5 -43 -11 -49 -7 -7 -15 -35 -20 -64 -5 -28
-15 -59 -24 -69 -8 -9 -15 -30 -15 -46 0 -17 -7 -39 -15 -50 -8 -10 -15 -29
-15 -40 0 -12 -7 -27 -15 -34 -8 -7 -15 -21 -15 -31 0 -11 -4 -27 -9 -37 -5
-9 -16 -33 -25 -52 -9 -19 -21 -43 -28 -52 -10 -14 -9 -20 5 -36 23 -25 21
-40 -5 -44 -13 -2 -24 -11 -26 -23 -3 -11 -13 -28 -23 -38 -10 -10 -19 -28
-19 -42 0 -19 6 -24 38 -30 43 -7 111 17 114 40 0 8 1 21 2 27 1 7 -12 16 -29
19 -26 5 -28 7 -11 14 29 12 72 -15 68 -43 -4 -28 33 -61 70 -62 33 0 58 -9
58 -21 0 -5 -32 -9 -71 -9 -62 0 -70 -2 -67 -17 3 -15 12 -17 47 -15 37 3 42
1 39 -15 -2 -10 -17 -22 -36 -28 -21 -6 -32 -15 -32 -27 0 -21 8 -22 75 -4 48
13 50 14 50 50 0 21 7 41 15 46 8 5 11 12 7 16 -4 4 -1 17 7 29 8 12 20 56 26
98 7 42 18 84 25 94 14 19 42 12 52 -14 13 -33 85 -148 101 -160 9 -7 33 -13
55 -13 23 0 36 -4 32 -10 -3 -5 -17 -10 -31 -10 -13 0 -24 -5 -24 -10 0 -21
50 -89 69 -95 19 -6 65 -42 113 -88 17 -16 24 -17 56 -6 68 22 91 55 97 144 6
88 -3 112 -67 178 -33 34 -75 85 -94 114 -18 28 -42 57 -53 63 -12 6 -21 17
-21 24 0 8 -7 16 -15 20 -8 3 -15 17 -15 32 0 20 16 42 63 87 132 125 207 202
207 214 0 16 -14 24 -74 38 -49 12 -50 13 -16 15 52 4 63 1 82 -21 9 -10 21
-19 27 -19 6 0 38 21 71 46 64 50 86 86 120 196 20 65 20 68 3 119 -10 29 -22
54 -28 55 -5 2 -25 -3 -44 -11z m-661 -175 c0 -17 -26 -40 -44 -40 -12 0 -5
34 10 51 19 21 34 16 34 -11z m491 -83 c-5 -5 -18 -7 -28 -3 -14 6 -15 9 -4
16 19 11 46 1 32 -13z m-126 -17 c-3 -5 -13 -10 -21 -10 -8 0 -14 5 -14 10 0
6 9 10 21 10 11 0 17 -4 14 -10z m-99 -169 c-8 -13 -56 -15 -56 -3 0 13 44 31
54 22 4 -5 5 -13 2 -19z m79 9 c3 -5 -1 -10 -10 -10 -9 0 -13 5 -10 10 3 6 8
10 10 10 2 0 7 -4 10 -10z m-557 -487 c2 -8 -6 -13 -22 -13 -17 0 -26 5 -26
16 0 19 41 16 48 -3z m-102 -90 c-3 -8 -6 -17 -6 -19 0 -2 -6 -4 -14 -4 -17 0
-28 38 -12 43 19 7 37 -5 32 -20z"/>
<path d="M6835 5846 c-61 -16 -89 -30 -137 -70 -75 -63 -97 -76 -127 -76 -25
0 -35 -7 -55 -39 -14 -21 -35 -41 -49 -44 -22 -6 -81 -70 -157 -172 -19 -26
-43 -55 -52 -66 -10 -10 -18 -25 -18 -32 0 -8 -9 -22 -20 -32 -11 -10 -20 -24
-20 -31 0 -8 -9 -28 -20 -46 -27 -44 -25 -58 6 -58 22 0 24 -3 18 -22 -3 -13
-11 -28 -16 -35 -10 -12 7 -123 24 -156 6 -11 6 -23 0 -30 -12 -15 -20 -107
-9 -107 4 0 11 -8 14 -17 19 -51 62 -90 133 -124 14 -6 37 -17 51 -25 67 -34
277 -46 357 -18 69 23 182 87 188 106 3 10 10 18 16 18 33 0 198 140 198 168
0 14 -75 42 -113 42 -33 0 -37 3 -37 25 0 14 -4 25 -8 25 -4 0 -23 -11 -42
-25 -19 -14 -44 -25 -57 -25 -22 0 -93 -61 -93 -80 0 -6 -6 -10 -14 -10 -8 0
-28 -11 -44 -25 -17 -14 -36 -25 -43 -25 -7 0 -20 -6 -28 -13 -9 -8 -40 -24
-70 -36 -42 -18 -65 -22 -99 -17 -52 7 -66 17 -98 68 -29 46 -41 160 -18 179
8 6 14 20 14 29 0 10 6 31 14 47 15 31 77 153 98 194 28 54 198 247 259 293
35 27 40 35 36 62 l-5 31 51 -1 c35 0 71 9 112 27 42 18 77 27 117 27 58 0 72
7 59 28 -14 23 -75 62 -96 62 -12 0 -27 6 -34 13 -6 6 -31 12 -54 13 -23 1
-51 3 -62 7 -11 3 -43 0 -70 -7z m-59 -97 c8 -13 -13 -34 -43 -44 -29 -8 -30
8 -3 35 23 23 36 25 46 9z m-56 -164 c0 -15 -26 -32 -36 -23 -2 3 -2 13 2 22
8 20 34 21 34 1z m-354 -151 c-14 -22 -30 -44 -36 -51 -5 -7 -10 -16 -10 -20
0 -4 -12 -17 -27 -29 -25 -20 -27 -25 -15 -44 11 -17 10 -21 -5 -27 -10 -3
-28 -18 -40 -32 -18 -21 -22 -23 -23 -8 0 9 9 26 20 37 11 11 20 24 20 28 0
16 41 92 50 92 5 0 12 9 15 21 7 21 65 82 72 75 2 -2 -7 -21 -21 -42z m128
-89 c-35 -27 -41 -16 -11 23 7 9 13 10 21 2 7 -7 4 -14 -10 -25z m-47 -57 c-3
-8 -6 -5 -6 6 -1 11 2 17 5 13 3 -3 4 -12 1 -19z m-107 -248 c0 -11 7 -23 15
-26 8 -4 15 -17 15 -30 0 -19 -7 -24 -36 -30 -26 -5 -40 -2 -51 8 -13 14 -11
18 15 37 22 15 29 27 25 41 -3 11 0 20 6 20 6 0 11 -9 11 -20z m490 -224 c-19
-18 -70 -30 -70 -16 0 5 10 10 23 10 12 0 29 5 37 10 22 14 27 12 10 -4z m120
-11 c-6 -11 -60 -15 -60 -4 0 10 22 18 45 16 11 -1 18 -6 15 -12z"/>
<path d="M3904 5835 c4 -12 -3 -15 -29 -15 -30 0 -35 -4 -45 -37 -13 -45 -43
-118 -77 -190 -15 -31 -22 -60 -18 -72 3 -10 2 -22 -3 -25 -5 -3 -14 -31 -21
-63 -7 -32 -17 -69 -21 -83 -4 -14 -13 -45 -20 -70 -7 -25 -16 -58 -21 -74 -5
-16 -9 -42 -9 -57 0 -15 -4 -30 -9 -33 -5 -3 -11 -20 -14 -38 -2 -18 -13 -60
-22 -93 -10 -33 -19 -71 -20 -85 -1 -14 -6 -34 -12 -45 -20 -38 -53 -177 -60
-250 -6 -72 -6 -72 29 -110 32 -35 36 -37 57 -24 21 13 24 12 38 -8 19 -28 64
-30 80 -5 8 14 28 21 78 25 38 4 91 17 122 32 31 14 66 25 79 25 12 0 25 4 28
9 3 5 23 11 43 14 52 7 120 27 169 49 22 10 50 18 61 18 11 0 26 7 33 15 8 9
22 12 41 8 21 -4 30 -1 35 12 4 9 17 20 29 25 12 5 36 30 54 56 41 63 44 132
6 162 -29 23 -71 18 -86 -9 -12 -23 -52 -25 -69 -4 -17 21 -75 19 -151 -4 -87
-27 -103 -28 -123 -12 -14 12 -20 11 -39 -8 -24 -22 -52 -28 -61 -12 -3 5 -35
12 -71 16 -65 7 -95 23 -95 52 0 9 -8 22 -17 28 -17 13 -17 14 1 33 24 27 38
92 24 110 -9 10 -7 14 9 18 17 5 22 17 28 69 3 35 13 69 21 76 8 6 14 20 14
30 0 16 19 88 47 183 5 16 2 17 -25 12 -44 -10 -51 11 -8 29 37 16 46 34 61
133 6 34 4 42 -9 42 -23 0 -20 29 7 50 21 18 22 20 5 50 -10 17 -15 37 -12 45
4 11 -1 15 -16 15 -16 0 -20 -4 -16 -15z m-14 -55 c21 -13 1 -25 -39 -21 -11
1 -11 4 -1 16 14 17 20 18 40 5z m-34 -945 c-22 -17 -56 -20 -56 -6 0 10 23
18 55 20 20 0 20 0 1 -14z m90 -24 c-8 -13 -36 -15 -36 -3 0 4 5 13 12 20 14
14 34 0 24 -17z"/>
<path d="M8859 5806 c-7 -14 -18 -26 -24 -26 -43 0 -65 -105 -67 -329 -2 -162
-1 -163 23 -181 21 -17 22 -19 6 -25 -11 -5 -17 -18 -17 -39 0 -38 7 -49 45
-70 29 -16 29 -16 5 -14 -23 3 -25 0 -22 -31 4 -51 32 -94 57 -86 66 21 83 13
51 -24 -7 -9 -18 -41 -25 -71 -15 -71 -14 -69 -35 -108 -16 -31 -16 -35 -2
-51 22 -24 20 -31 -9 -31 -14 0 -29 -8 -35 -19 -14 -28 -13 -31 13 -31 23 0
47 -17 47 -32 0 -4 -12 -8 -27 -8 -35 0 -93 -35 -93 -55 0 -8 -4 -15 -10 -15
-5 0 -10 -11 -10 -25 0 -16 6 -25 15 -25 25 0 17 -19 -15 -35 -31 -16 -59 -59
-47 -71 4 -4 13 -1 21 5 20 17 41 4 26 -14 -7 -8 -9 -19 -5 -25 3 -5 -7 -18
-22 -27 -27 -15 -28 -18 -19 -50 13 -40 31 -41 72 -4 22 20 34 42 39 72 4 25
16 50 26 57 11 7 19 18 19 25 0 20 52 86 74 93 31 10 77 51 97 87 42 76 69
143 76 192 3 19 13 35 26 40 13 6 23 21 25 38 2 15 7 27 12 27 5 0 19 19 31
43 12 23 31 48 41 56 20 14 42 58 39 77 -1 7 10 15 24 18 14 4 25 12 25 20 0
7 7 19 15 26 8 7 15 21 15 31 0 10 9 23 20 29 11 6 27 25 36 43 31 66 39 77
55 82 17 6 79 95 79 115 0 7 -8 19 -17 27 -17 13 -16 14 5 8 36 -10 57 3 76
45 14 32 15 44 6 55 -16 19 -4 35 28 35 34 0 17 17 -22 22 -16 2 -31 8 -33 14
-5 15 58 25 74 12 13 -11 28 7 18 22 -4 6 -1 17 5 25 7 9 9 23 4 37 -4 13 -7
33 -5 45 2 18 -3 22 -31 21 -46 0 -95 -24 -104 -51 -4 -12 -15 -34 -25 -49
-11 -14 -19 -33 -19 -41 0 -8 -10 -17 -23 -21 -13 -3 -38 -26 -56 -51 -18 -25
-36 -45 -42 -45 -13 0 -11 -38 3 -42 24 -8 -5 -28 -40 -28 -23 0 -44 -7 -53
-17 -9 -10 -34 -33 -57 -52 -23 -19 -42 -40 -42 -47 0 -6 -7 -14 -15 -18 -11
-4 -14 -13 -9 -30 5 -22 2 -25 -38 -33 -30 -6 -44 -14 -46 -27 -3 -15 0 -17
14 -12 32 12 39 12 39 -4 0 -11 -11 -15 -36 -15 -20 0 -43 -6 -52 -14 -15 -12
-17 -10 -18 20 -1 19 -1 54 0 79 0 25 -3 61 -7 80 -7 31 -11 35 -36 32 -35 -5
-31 20 5 28 13 4 23 13 22 21 -5 30 -23 107 -38 159 -9 30 -19 69 -23 85 -4
17 -17 34 -30 40 -14 6 -21 17 -20 29 4 29 -20 31 -33 2z m701 -255 c0 -5 -6
-14 -14 -20 -16 -13 -32 2 -21 19 8 12 35 13 35 1z m-85 -121 c3 -5 -3 -10
-14 -10 -12 0 -21 5 -21 10 0 6 6 10 14 10 8 0 18 -4 21 -10z m-650 -70 c3 -5
-1 -10 -9 -10 -8 0 -18 5 -21 10 -3 6 1 10 9 10 8 0 18 -4 21 -10z m81 -34
c10 -8 16 -18 11 -22 -10 -10 -59 8 -65 24 -5 17 30 15 54 -2z m-28 -101 c23
-19 102 -45 138 -45 2 0 4 -7 4 -15 0 -11 -11 -13 -52 -8 -29 3 -59 10 -66 16
-7 5 -27 17 -45 26 -34 17 -50 51 -24 51 9 0 29 -11 45 -25z m47 -505 c-3 -5
-13 -6 -21 -3 -12 4 -13 8 -3 14 15 9 32 2 24 -11z m50 -80 c4 -6 -8 -10 -29
-10 -20 0 -36 5 -36 10 0 6 13 10 29 10 17 0 33 -4 36 -10z"/>
<path d="M5789 5791 c-5 -15 -21 -34 -34 -41 -14 -7 -25 -22 -25 -32 0 -11
-11 -34 -25 -52 -15 -20 -23 -40 -19 -50 4 -10 -2 -23 -17 -35 -13 -11 -24
-30 -25 -43 -1 -12 -5 -31 -9 -40 -6 -15 -2 -18 19 -18 26 0 36 -22 16 -35 -5
-3 -10 -15 -10 -26 0 -15 -7 -19 -39 -19 -35 0 -38 -2 -33 -25 2 -14 0 -25 -6
-25 -16 0 -43 -30 -37 -41 11 -17 36 -9 45 16 11 30 40 33 40 5 0 -11 7 -23
15 -26 22 -9 18 -30 -7 -48 -19 -13 -20 -19 -10 -41 9 -20 19 -25 46 -25 19 0
37 -4 41 -10 8 -13 -47 -40 -81 -40 -27 0 -27 1 -8 14 13 11 16 18 8 26 -7 7
-24 4 -60 -12 l-49 -22 35 -6 35 -6 -35 -22 c-19 -12 -38 -22 -43 -22 -4 0 -5
-11 -1 -25 4 -18 1 -27 -10 -31 -16 -6 -23 -54 -7 -54 5 0 15 7 22 16 20 24
108 14 127 -15 17 -25 35 -27 52 -6 9 11 10 18 1 28 -15 19 -4 27 36 27 27 0
35 5 44 27 5 14 8 32 5 39 -3 7 2 15 11 18 12 5 13 9 3 21 -11 13 -10 18 2 28
26 21 47 90 57 182 6 50 17 134 25 189 8 54 13 110 11 125 -1 14 -3 43 -4 64
-1 30 -8 46 -32 68 -39 37 -57 37 -70 0z m-94 -251 c-3 -5 -11 -10 -16 -10 -6
0 -7 5 -4 10 3 6 11 10 16 10 6 0 7 -4 4 -10z m-8 -463 c-4 -14 -41 -25 -90
-26 -53 -1 -44 22 11 30 23 3 44 8 48 11 9 10 35 -3 31 -15z"/>
<path d="M3029 5728 c-7 -13 -34 -56 -60 -96 -40 -60 -95 -162 -175 -323 -8
-14 -25 -59 -39 -100 -14 -41 -30 -82 -35 -91 -5 -9 -13 -35 -16 -58 -13 -79
-41 -62 -74 43 -25 80 -47 134 -65 157 -7 8 -18 38 -25 65 -6 28 -14 58 -17
68 -2 9 -10 17 -17 17 -7 0 -30 16 -52 35 -45 41 -50 42 -64 15 -7 -13 -21
-20 -39 -20 -18 0 -41 -11 -59 -28 -17 -16 -42 -36 -56 -46 -37 -23 -34 -46 6
-46 l31 0 -20 -22 c-11 -13 -24 -34 -28 -48 -4 -14 -12 -31 -18 -38 -5 -7 -22
-47 -37 -90 -15 -42 -39 -107 -54 -143 -14 -36 -26 -73 -26 -82 0 -9 -9 -33
-20 -54 -27 -52 -80 -182 -90 -218 -8 -34 -36 -108 -53 -143 -8 -17 -8 -28 0
-41 9 -14 8 -22 -7 -37 -9 -10 -20 -38 -24 -62 -6 -39 -4 -45 26 -72 66 -61
113 -29 168 112 15 40 42 104 59 141 17 38 31 76 31 86 0 9 10 32 23 51 26 39
112 231 122 271 10 40 49 83 68 76 10 -4 17 -15 17 -25 0 -11 9 -31 20 -45 11
-14 20 -32 20 -40 0 -31 39 -106 73 -140 24 -23 32 -38 25 -45 -7 -7 -6 -17 2
-31 13 -26 40 -21 82 15 35 29 67 39 80 26 16 -16 1 -42 -23 -42 -19 0 -124
-43 -139 -57 -3 -2 6 -13 20 -23 25 -19 25 -19 7 -48 -24 -42 -22 -62 6 -62
13 0 28 -5 34 -11 6 -6 21 -9 34 -7 17 2 36 25 74 93 53 95 80 114 81 57 0
-18 7 -39 15 -48 14 -13 20 -13 62 5 49 21 59 43 30 60 -17 10 -17 10 0 11 11
0 24 14 33 36 17 40 14 70 -5 66 -7 -1 -22 0 -33 4 -25 8 -9 28 18 22 10 -2
28 6 39 17 23 23 55 89 55 114 0 10 7 26 15 37 8 10 15 31 15 46 0 15 4 29 9
32 13 8 64 159 66 196 0 8 9 41 19 72 21 66 17 94 -13 78 -28 -14 -74 -13 -69
3 3 7 26 13 55 15 l50 3 11 63 c7 35 15 105 19 155 6 87 5 93 -17 116 -30 32
-50 32 -80 0 -13 -14 -28 -25 -33 -25 -5 0 -6 11 -3 25 8 33 -18 34 -35 3z
m-24 -458 c2 -19 -3 -42 -10 -50 -7 -8 -16 -33 -20 -54 -3 -22 -13 -49 -21
-60 -8 -11 -14 -32 -14 -47 0 -19 -12 -37 -44 -63 -25 -20 -47 -33 -49 -29
-15 25 27 158 80 258 9 17 21 39 27 50 25 46 47 43 51 -5z m93 -18 c2 -7 -2
-10 -12 -6 -9 3 -16 11 -16 16 0 13 23 5 28 -10z m-154 -342 c-10 -4 -21 -6
-24 -3 -8 7 24 22 34 16 5 -4 1 -10 -10 -13z m-64 -170 c0 -14 -11 -22 -41
-30 -49 -13 -74 -10 -74 10 0 16 54 38 93 39 15 1 22 -5 22 -19z m-772 -92
c-6 -18 -28 -21 -28 -4 0 9 7 16 16 16 9 0 14 -5 12 -12z"/>
<path d="M827 5685 c-12 -9 -17 -20 -13 -33 4 -11 0 -24 -8 -31 -14 -12 -14
-22 -4 -181 0 -8 -3 -52 -6 -97 -5 -55 -3 -89 4 -103 9 -16 8 -25 -1 -36 -14
-18 -5 -379 12 -454 6 -25 16 -70 23 -100 17 -74 43 -130 61 -130 8 0 18 -7
23 -15 5 -10 31 -17 75 -22 56 -5 67 -9 67 -24 0 -24 4 -24 38 1 30 22 111 40
178 40 35 0 44 3 44 18 0 9 9 23 21 30 15 10 19 20 15 38 -7 26 3 31 22 12 9
-9 17 -5 37 16 14 15 25 34 25 42 0 8 7 17 15 20 8 3 17 14 20 25 4 11 23 30
43 44 21 14 30 25 21 25 -9 0 -22 7 -29 15 -9 11 -22 14 -41 10 -20 -5 -33 -1
-48 14 -12 12 -21 23 -21 26 0 9 26 5 37 -6 9 -9 104 -14 205 -10 41 1 59 23
73 91 4 19 13 42 20 50 7 8 18 34 24 57 7 23 16 45 21 48 5 3 9 16 9 28 -1 12
4 49 10 82 14 79 14 95 -3 95 -28 0 -28 22 -2 47 17 15 26 33 24 46 -3 23 -4
23 -91 10 -20 -3 -43 0 -50 6 -7 5 -23 8 -35 4 -13 -3 -22 -1 -22 6 0 6 6 11
13 12 6 0 35 2 62 5 28 2 70 5 95 7 l45 2 -3 80 c-2 43 -4 80 -5 82 -2 1 -33
4 -70 6 -74 5 -87 -3 -101 -64 -3 -14 -17 -31 -31 -37 -14 -7 -25 -20 -25 -31
0 -11 -4 -22 -9 -26 -10 -6 -41 -63 -41 -75 0 -4 -20 -30 -45 -56 -24 -27 -47
-60 -50 -74 -3 -16 -21 -34 -46 -48 -22 -13 -43 -31 -46 -40 -4 -9 -17 -27
-30 -39 -13 -12 -23 -30 -23 -39 0 -10 -7 -26 -17 -36 -13 -15 -14 -23 -5 -43
10 -22 9 -25 -13 -31 -51 -13 -15 -39 40 -28 29 5 33 3 39 -22 5 -18 3 -30 -6
-35 -44 -27 -44 -28 -24 -42 18 -14 18 -14 -2 -19 -12 -3 -22 -16 -24 -29 -2
-18 -8 -23 -23 -21 -11 2 -34 6 -52 9 -22 3 -37 0 -48 -11 -26 -26 -48 -21
-41 9 5 20 3 25 -13 25 -10 0 -24 -7 -31 -16 -22 -25 -72 -14 -88 19 -18 37
-39 314 -42 550 0 4 -9 7 -20 7 -28 0 -39 48 -15 66 39 29 13 219 -37 267 -33
31 -36 31 -61 12z m33 -125 c0 -5 -4 -10 -10 -10 -5 0 -10 5 -10 10 0 6 5 10
10 10 6 0 10 -4 10 -10z m22 -123 c-6 -7 -9 -23 -5 -35 6 -25 -15 -30 -35 -10
-18 18 -15 26 16 42 34 19 37 19 24 3z m723 -147 c-3 -5 -12 -10 -20 -10 -7 0
-18 -13 -24 -30 -14 -42 -65 -42 -54 0 3 11 18 22 34 25 16 4 31 11 34 16 4 5
13 9 21 9 8 0 12 -4 9 -10z m143 -42 c-7 -20 -77 -43 -90 -30 -8 8 -1 15 23
26 43 18 72 20 67 4z m-250 -110 c-3 -7 -15 -15 -28 -16 -21 -3 -22 -2 -11 12
16 19 44 21 39 4z m-108 -43 c0 -8 -7 -15 -15 -15 -8 0 -15 7 -15 15 0 8 7 15
15 15 8 0 15 -7 15 -15z m75 -55 c0 -17 -37 -25 -63 -15 -15 6 -15 8 3 21 24
18 60 14 60 -6z m195 -130 c0 -5 -4 -10 -10 -10 -5 0 -10 5 -10 10 0 6 5 10
10 10 6 0 10 -4 10 -10z m-55 -29 c7 -12 -44 -53 -56 -45 -17 10 -9 35 14 44
29 12 35 12 42 1z m-415 -332 c0 -5 -7 -9 -15 -9 -15 0 -20 12 -9 23 8 8 24
-1 24 -14z"/>
<path d="M1714 5639 c-11 -19 12 -30 52 -27 26 2 39 8 39 17 0 18 -80 26 -91
10z"/>
<path d="M6136 5134 c-10 -26 -7 -44 8 -44 17 0 28 24 20 45 -8 19 -20 19 -28
-1z"/>
<path d="M7167 5063 c-14 -13 -6 -24 15 -21 27 4 36 28 11 28 -11 0 -23 -3
-26 -7z"/>
<path d="M7217 5004 c-8 -8 1 -24 14 -24 5 0 9 7 9 15 0 15 -12 20 -23 9z"/>
<path d="M5463 4913 c-3 -6 -12 -11 -22 -10 -10 0 -34 -7 -54 -16 -28 -14 -37
-24 -37 -42 0 -14 5 -25 10 -25 6 0 10 9 10 20 0 17 7 20 39 20 22 0 44 6 51
15 14 17 47 19 85 5 23 -9 32 -6 57 15 32 27 33 27 -66 29 -45 1 -70 -3 -73
-11z"/>
<path d="M5645 4920 c-7 -12 12 -50 25 -50 11 0 13 21 4 44 -7 18 -20 21 -29
6z"/>
<path d="M1250 4841 c0 -5 -3 -18 -7 -28 -6 -17 -5 -17 15 1 12 10 19 23 16
27 -7 12 -24 11 -24 0z"/>
<path d="M1125 4829 c-12 -19 5 -23 22 -6 16 16 16 17 1 17 -9 0 -20 -5 -23
-11z"/>
<path d="M1596 4756 c7 -19 48 -22 42 -3 -3 6 -14 13 -26 15 -16 3 -20 -1 -16
-12z"/>
<path d="M7325 4759 c-4 -6 -9 -42 -11 -79 l-4 -69 43 2 c41 2 66 19 67 45 0
6 -11 12 -25 12 -39 0 -29 17 26 45 28 15 48 31 46 38 -3 7 -11 10 -18 8 -22
-8 -72 -6 -96 2 -13 5 -24 3 -28 -4z"/>
<path d="M7350 4570 c-8 -14 -8 -20 0 -20 18 0 50 20 50 30 0 18 -39 10 -50
-10z"/>
<path d="M2597 4453 c-4 -3 -7 -11 -7 -17 0 -6 5 -5 12 2 6 6 9 14 7 17 -3 3
-9 2 -12 -2z"/>
</g>
</svg>
